<?xml version="1.0" encoding="UTF-8" standalone="no"?>
<!-- Created with Inkscape (http://www.inkscape.org/) -->

<svg
   width="210mm"
   height="297mm"
   viewBox="0 0 210 297"
   version="1.1"
   id="svg18084"
   inkscape:version="1.1 (c68e22c387, 2021-05-23)"
   sodipodi:docname="sander_birb_clean_2.svg"
   xmlns:inkscape="http://www.inkscape.org/namespaces/inkscape"
   xmlns:sodipodi="http://sodipodi.sourceforge.net/DTD/sodipodi-0.dtd"
   xmlns="http://www.w3.org/2000/svg"
   xmlns:svg="http://www.w3.org/2000/svg">
  <sodipodi:namedview
     id="namedview18086"
     pagecolor="#ffffff"
     bordercolor="#666666"
     borderopacity="1.0"
     inkscape:pageshadow="2"
     inkscape:pageopacity="0.0"
     inkscape:pagecheckerboard="0"
     inkscape:document-units="mm"
     showgrid="false"
     inkscape:zoom="0.56630543"
     inkscape:cx="258.69432"
     inkscape:cy="661.30392"
     inkscape:window-width="2560"
     inkscape:window-height="1377"
     inkscape:window-x="-8"
     inkscape:window-y="-8"
     inkscape:window-maximized="1"
     inkscape:current-layer="layer1" />
  <defs
     id="defs18081" />
  <g
     inkscape:label="Layer 1"
     inkscape:groupmode="layer"
     id="layer1">
    <path
       style="fill:none;stroke:#2449cb;stroke-width:6;stroke-linecap:butt;stroke-linejoin:bevel;stroke-miterlimit:4;stroke-dasharray:none;stroke-opacity:1"
       d="m 136.70712,274.28163 c -4.56619,-46.61687 41.73168,-102.24357 40.73985,-160.22845 -0.20527,-12.00049 -12.9348,-31.804411 -18.59254,-43.368271 -16.38263,-24.9211 -8.01667,-51.65571 -57.8902,-60.52085 -4.799015,-0.2571097 -13.68087,1.81215 -19.67203,4.39663 -9.64966,4.16269 -17.93295,12.91419 -22.24443,23.61618 -1.30802,7.81177 -2.59556,13.21087 -5.33951,19.93733 -4.04722,11.20044 -12.78687,16.94159 -11.60645,27.96942 16.92585,-2.51772 27.81251,-7.81087 31.25466,-10.27768 14.00639,-3.61542 11.01155,-6.10519 34.15462,-1.78867 39.74038,49.339911 37.77181,89.217231 21.30147,136.681401 l -39.76585,80.9266 C 87.8833,289.14728 73.00337,272.64833 71.86672,268.91486 69.40972,260.84455 67.60252,228.37345 66.2642,215.38114 56.55911,121.16441 62.33052,78.188389 99.185915,96.636839"
       id="path125185"
       sodipodi:nodetypes="csccscccccccssc" />
  </g>
</svg>
